HIERARCHY
ROOT joint_0
{
	OFFSET 0.000000 0.000000 0.000000
	CHANNELS 6 Xposition Yposition Zposition Zrotation Yrotation Xrotation 
	JOINT joint_1
	{
		OFFSET 7.566162 2.250183 114.799927
		CHANNELS 3 Zrotation Yrotation Xrotation
		JOINT joint_2
		{
			OFFSET -5.201660 -0.414001 104.936035
			CHANNELS 3 Zrotation Yrotation Xrotation
			JOINT joint_3
			{
				OFFSET -6.923584 -0.419739 104.718018
				CHANNELS 3 Zrotation Yrotation Xrotation
				JOINT joint_4
				{
					OFFSET 3.108887 2.881104 149.449951
					CHANNELS 3 Zrotation Yrotation Xrotation
					JOINT joint_5
					{
						OFFSET 19.988770 5.920349 90.786987
						CHANNELS 3 Zrotation Yrotation Xrotation
						End Site
						{
							OFFSET 0.000000 0.000000 0.000000
						}
					}
				}
				JOINT joint_6
				{
					OFFSET 9.283936 -30.015930 84.410034
					CHANNELS 3 Zrotation Yrotation Xrotation
					JOINT joint_7
					{
						OFFSET 47.243164 -155.716736 -23.241089
						CHANNELS 3 Zrotation Yrotation Xrotation
						JOINT joint_8
						{
							OFFSET 31.323730 -15.356873 -268.798950
							CHANNELS 3 Zrotation Yrotation Xrotation
							JOINT joint_9
							{
								OFFSET 28.122314 -2.114624 -262.450012
								CHANNELS 3 Zrotation Yrotation Xrotation
								End Site
								{
									OFFSET 0.000000 0.000000 0.000000
								}
							}
						}
					}
				}
				JOINT joint_10
				{
					OFFSET -5.580566 33.311218 83.498047
					CHANNELS 3 Zrotation Yrotation Xrotation
					JOINT joint_11
					{
						OFFSET -22.773438 160.515381 -27.138062
						CHANNELS 3 Zrotation Yrotation Xrotation
						JOINT joint_12
						{
							OFFSET 27.004395 30.848877 -267.937988
							CHANNELS 3 Zrotation Yrotation Xrotation
							JOINT joint_13
							{
								OFFSET 32.625000 14.824585 -261.518005
								CHANNELS 3 Zrotation Yrotation Xrotation
								End Site
								{
									OFFSET 0.000000 0.000000 0.000000
								}
							}
						}
					}
				}
			}
		}
	}
	JOINT joint_14
	{
		OFFSET 20.623535 -83.447632 -106.174011
		CHANNELS 3 Zrotation Yrotation Xrotation
		JOINT joint_15
		{
			OFFSET 0.661865 -23.563843 -459.915039
			CHANNELS 3 Zrotation Yrotation Xrotation
			JOINT joint_16
			{
				OFFSET -23.461670 -28.727966 -444.760971
				CHANNELS 3 Zrotation Yrotation Xrotation
				JOINT joint_17
				{
					OFFSET 178.992920 54.047363 -80.113001
					CHANNELS 3 Zrotation Yrotation Xrotation
					End Site
					{
						OFFSET 0.000000 0.000000 0.000000
					}
				}
			}
		}
	}
	JOINT joint_18
	{
		OFFSET -19.571533 84.686279 -105.380005
		CHANNELS 3 Zrotation Yrotation Xrotation
		JOINT joint_19
		{
			OFFSET -22.949951 3.639404 -459.933044
			CHANNELS 3 Zrotation Yrotation Xrotation
			JOINT joint_20
			{
				OFFSET -33.690674 4.092651 -445.010971
				CHANNELS 3 Zrotation Yrotation Xrotation
				JOINT joint_21
				{
					OFFSET 187.419678 18.953857 -76.759001
					CHANNELS 3 Zrotation Yrotation Xrotation
					End Site
					{
						OFFSET 0.000000 0.000000 0.000000
					}
				}
			}
		}
	}
}
MOTION
Frames: 15
Frame Time: 0.016667
-3505.137695 880.521118 1111.198975 -11.812947 1.172267 -1.126780 0.274189 -0.792935 1.451370 0.191706 0.076301 -0.270771 0.223509 -0.157458 0.215602 0.037624 1.378267 -0.496438 0.000000 0.000000 0.000000 -1.467833 3.764754 -0.665506 0.182660 4.084370 1.134124 0.311241 0.513534 2.646322 0.000000 0.000000 0.000000 4.551165 4.583790 1.358049 -0.364591 2.827031 -5.329258 0.205453 2.849458 0.007905 0.000000 0.000000 0.000000 -1.185578 0.635181 0.599271 -1.054958 -2.010217 0.702422 -1.126238 -0.477501 -0.359481 0.000000 0.000000 0.000000 4.278514 -1.177855 4.077138 4.465886 1.757399 0.019848 4.294538 -1.123820 1.864726 0.000000 0.000000 0.000000 
-3504.386719 880.600647 1111.152954 -11.818933 1.385839 -1.176951 0.250869 -0.694544 1.432103 0.169831 0.065585 -0.274787 0.202098 -0.140369 0.216599 0.036944 0.946625 -0.394457 0.000000 0.000000 0.000000 -1.499862 3.844504 -0.759600 0.190875 4.188276 1.132993 0.350729 0.114091 2.872782 0.000000 0.000000 0.000000 4.551036 4.711044 1.417262 -0.350257 2.940810 -5.392264 0.163083 2.496379 -0.119700 0.000000 0.000000 0.000000 -1.185585 0.466596 0.627799 -1.059241 -2.060815 0.737544 -1.134058 -0.460763 -0.367972 0.000000 0.000000 0.000000 4.283669 -1.345904 4.108737 4.473506 1.700162 0.008219 4.302339 -1.107446 1.866330 0.000000 0.000000 0.000000 
-3503.384766 880.635437 1111.072998 -11.836099 1.664319 -1.245015 0.231378 -0.647785 1.418975 0.151778 0.064034 -0.278117 0.184455 -0.131235 0.217407 0.038114 0.462168 -0.284869 0.000000 0.000000 0.000000 -1.501603 3.918163 -0.828314 0.206190 4.282154 1.130752 0.381740 -0.119272 3.056174 0.000000 0.000000 0.000000 4.531372 4.812438 1.466680 -0.340830 3.037615 -5.421221 0.131586 2.297650 -0.256965 0.000000 0.000000 0.000000 -1.187059 0.255594 0.676725 -1.065233 -2.142435 0.776174 -1.146776 -0.432283 -0.382173 0.000000 0.000000 0.000000 4.294859 -1.560172 4.165559 4.489255 1.621595 -0.025073 4.316892 -1.082007 1.869770 0.000000 0.000000 0.000000 
-3501.968750 880.566467 1110.932983 -11.866748 2.035773 -1.338723 0.226013 -0.734678 1.414405 0.149033 0.088100 -0.274807 0.181510 -0.152692 0.215844 0.041729 -0.087773 -0.164979 0.000000 0.000000 0.000000 -1.481141 4.001509 -0.852265 0.229504 4.373796 1.124640 0.397150 -0.054086 3.180277 0.000000 0.000000 0.000000 4.452511 4.887240 1.510694 -0.340169 3.125026 -5.396317 0.117364 2.388354 -0.433897 0.000000 0.000000 0.000000 -1.193651 -0.006464 0.758405 -1.075712 -2.279828 0.816969 -1.169894 -0.383876 -0.406996 0.000000 0.000000 0.000000 4.315276 -1.836117 4.264715 4.517938 1.510322 -0.097331 4.341781 -1.044334 1.876163 0.000000 0.000000 0.000000 
-3500.300537 880.453735 1110.758057 -11.908281 2.471491 -1.450372 0.223512 -0.872544 1.415744 0.149865 0.122717 -0.270452 0.182048 -0.184419 0.213009 0.048044 -0.691194 -0.035531 0.000000 0.000000 0.000000 -1.429596 4.078840 -0.850669 0.258209 4.456494 1.119260 0.402359 0.177209 3.260292 0.000000 0.000000 0.000000 4.354700 4.937049 1.548026 -0.344411 3.195451 -5.339671 0.113955 2.633740 -0.623072 0.000000 0.000000 0.000000 -1.202072 -0.309773 0.860242 -1.088200 -2.448904 0.861828 -1.198643 -0.321789 -0.438429 0.000000 0.000000 0.000000 4.341232 -2.157622 4.388491 4.554358 1.377522 -0.191005 4.373024 -0.996096 1.884052 0.000000 0.000000 0.000000 
-3498.851562 880.421814 1110.608032 -11.962163 2.879994 -1.559402 0.201215 -0.858750 1.417080 0.128995 0.124756 -0.275129 0.161808 -0.174234 0.213807 0.055664 -1.246625 0.082525 0.000000 0.000000 0.000000 -1.299909 4.071685 -0.829003 0.284215 4.462662 1.118539 0.394776 0.434640 3.248148 0.000000 0.000000 0.000000 4.364856 4.905857 1.547097 -0.351728 3.173096 -5.267989 0.122246 2.864061 -0.709887 0.000000 0.000000 0.000000 -1.201909 -0.613051 0.954163 -1.093761 -2.587571 0.908382 -1.217666 -0.268798 -0.462770 0.000000 0.000000 0.000000 4.366814 -2.468723 4.498318 4.588899 1.259122 -0.267449 4.403446 -0.946472 1.891464 0.000000 0.000000 0.000000 
-3497.850586 880.600586 1110.503052 -12.035975 3.214643 -1.658779 0.129633 -0.590069 1.442815 0.051947 0.074990 -0.307372 0.088307 -0.104812 0.231207 0.063174 -1.699005 0.175443 0.000000 0.000000 0.000000 -1.002364 3.918637 -0.810787 0.304833 4.357637 1.141180 0.365150 0.729532 3.075728 0.000000 0.000000 0.000000 4.609870 4.759275 1.476791 -0.364077 3.004258 -5.190807 0.150772 3.053527 -0.605874 0.000000 0.000000 0.000000 -1.185822 -0.895253 1.019561 -1.085673 -2.666781 0.966800 -1.216545 -0.234741 -0.472422 0.000000 0.000000 0.000000 4.392128 -2.735584 4.574125 4.619424 1.164289 -0.307590 4.432215 -0.898681 1.898431 0.000000 0.000000 0.000000 
-3497.068848 880.861145 1110.423950 -12.121359 3.517633 -1.754189 0.040984 -0.160290 1.462449 -0.047208 -0.008991 -0.347673 -0.006506 0.000896 0.254190 0.069990 -2.106741 0.259721 0.000000 0.000000 0.000000 -0.630268 3.678830 -0.784085 0.321799 4.180218 1.178905 0.323074 1.050773 2.809344 0.000000 0.000000 0.000000 4.962776 4.534813 1.381776 -0.380510 2.741248 -5.112980 0.191046 3.229494 -0.398592 0.000000 0.000000 0.000000 -1.161449 -1.172081 1.074829 -1.070817 -2.716577 1.027521 -1.205555 -0.210791 -0.474627 0.000000 0.000000 0.000000 4.417277 -2.986527 4.634859 4.647580 1.082807 -0.330298 4.459742 -0.851308 1.904954 0.000000 0.000000 0.000000 
-3496.282959 880.945740 1110.369019 -12.191323 3.833218 -1.844891 0.005947 0.330205 1.396802 -0.091175 -0.107279 -0.355118 -0.050326 0.129279 0.249158 0.074843 -2.539372 0.360753 0.000000 0.000000 0.000000 -0.422131 3.455472 -0.704067 0.331610 3.974617 1.200158 0.292627 1.225202 2.604439 0.000000 0.000000 0.000000 5.167956 4.283740 1.352128 -0.397034 2.464926 -5.049420 0.217888 3.309619 -0.234864 0.000000 0.000000 0.000000 -1.141974 -1.459313 1.151865 -1.061996 -2.764228 1.057720 -1.201474 -0.191813 -0.478407 0.000000 0.000000 0.000000 4.434636 -3.261648 4.701124 4.667477 1.021705 -0.353079 4.478899 -0.808580 1.908492 0.000000 0.000000 0.000000 
-3495.592773 880.708252 1110.353027 -12.244913 4.178248 -1.927256 0.066726 0.904002 1.183730 -0.034796 -0.231276 -0.299501 -0.002002 0.291184 0.189398 0.077550 -3.038226 0.489441 0.000000 0.000000 0.000000 -0.533830 3.272357 -0.535771 0.330999 3.735587 1.219726 0.278847 1.127585 2.486399 0.000000 0.000000 0.000000 5.123012 3.998426 1.444362 -0.414778 2.174948 -5.015766 0.220983 3.226516 -0.148074 0.000000 0.000000 0.000000 -1.129467 -1.775731 1.271104 -1.062257 -2.817850 1.031961 -1.209655 -0.169362 -0.488697 0.000000 0.000000 0.000000 4.443123 -3.588372 4.778436 4.677755 0.988979 -0.377236 4.488263 -0.766023 1.907991 0.000000 0.000000 0.000000 
-3494.898438 880.294800 1110.360962 -12.282574 4.529957 -2.002151 0.179741 1.550718 0.882579 0.072889 -0.365612 -0.204624 0.092415 0.461055 0.098965 0.078699 -3.564107 0.631510 0.000000 0.000000 0.000000 -0.805206 3.104531 -0.326374 0.322958 3.476014 1.239240 0.276131 0.882352 2.428706 0.000000 0.000000 0.000000 4.940232 3.690992 1.612239 -0.434377 1.872042 -5.005999 0.210408 3.046996 -0.105117 0.000000 0.000000 0.000000 -1.121666 -2.095158 1.408620 -1.068537 -2.870521 0.976684 -1.224783 -0.152752 -0.500313 0.000000 0.000000 0.000000 4.444317 -3.931620 4.859013 4.679511 0.975125 -0.401347 4.489054 -0.727652 1.904368 0.000000 0.000000 0.000000 
-3493.684082 879.886658 1110.359009 -12.277313 4.878248 -2.076579 0.280433 2.120905 0.607584 0.164461 -0.468524 -0.121568 0.172186 0.586995 0.022014 0.077857 -4.060741 0.778616 0.000000 0.000000 0.000000 -0.983146 2.982335 -0.140154 0.311663 3.261201 1.191897 0.290661 0.692225 2.509088 0.000000 0.000000 0.000000 4.693328 3.440823 1.778114 -0.449329 1.640462 -4.985423 0.190776 2.886448 -0.150240 0.000000 0.000000 0.000000 -1.126664 -2.371976 1.532144 -1.085779 -2.926635 0.936723 -1.249109 -0.158173 -0.509359 0.000000 0.000000 0.000000 4.432804 -4.245277 4.943865 4.669373 0.962128 -0.436763 4.477197 -0.705488 1.897166 0.000000 0.000000 0.000000 
-3491.760986 879.524109 1110.338989 -12.216424 5.220983 -2.153301 0.351288 2.565996 0.393180 0.223966 -0.532192 -0.066535 0.223678 0.670149 -0.029388 0.075964 -4.529165 0.932909 0.000000 0.000000 0.000000 -0.969957 2.922221 0.010583 0.298435 3.111938 1.034816 0.331173 0.625824 2.807089 0.000000 0.000000 0.000000 4.361396 3.274249 1.921158 -0.456982 1.515129 -4.942722 0.158298 2.776933 -0.335395 0.000000 0.000000 0.000000 -1.149503 -2.593461 1.631922 -1.118152 -2.980332 0.930633 -1.284525 -0.198413 -0.512813 0.000000 0.000000 0.000000 4.405735 -4.515925 5.038715 4.645938 0.947797 -0.493912 4.450404 -0.709166 1.886415 0.000000 0.000000 0.000000 
-3489.316650 879.166931 1110.307983 -12.113878 5.565033 -2.230004 0.410042 2.927465 0.209773 0.271217 -0.571076 -0.024462 0.264722 0.725392 -0.069289 0.072983 -4.970148 1.091796 0.000000 0.000000 0.000000 -0.864036 2.908149 0.144662 0.282748 3.002349 0.800723 0.389451 0.607643 3.244781 0.000000 0.000000 0.000000 3.957137 3.160211 2.050779 -0.457652 1.461675 -4.874797 0.116502 2.683964 -0.608682 0.000000 0.000000 0.000000 -1.184894 -2.778112 1.719618 -1.161078 -3.036372 0.939386 -1.328604 -0.260139 -0.513609 0.000000 0.000000 0.000000 4.365976 -4.762434 5.138970 4.611211 0.935132 -0.562584 4.411512 -0.728286 1.872220 0.000000 0.000000 0.000000 
-3486.396484 878.873108 1110.249023 -11.988663 5.919147 -2.307508 0.446500 3.178664 0.074351 0.297276 -0.584751 0.000082 0.287121 0.746303 -0.091650 0.068231 -5.333075 1.237068 0.000000 0.000000 0.000000 -0.708391 2.917721 0.249975 0.264881 2.920214 0.528803 0.444600 0.624831 3.661950 0.000000 0.000000 0.000000 3.598285 3.084241 2.121041 -0.448360 1.456897 -4.745069 0.079911 2.624982 -0.863067 0.000000 0.000000 0.000000 -1.223538 -2.935533 1.795925 -1.204555 -3.110739 0.951817 -1.374674 -0.324364 -0.514481 0.000000 0.000000 0.000000 4.318525 -4.991081 5.232178 4.569538 0.912554 -0.626008 4.366432 -0.745925 1.855291 0.000000 0.000000 0.000000 
